<?xml version="1.0" encoding="utf-8"?>
<!-- Generator: Adobe Illustrator 19.1.0, SVG Export Plug-In . SVG Version: 6.00 Build 0)  -->
<svg version="1.0" id="Layer_1" xmlns="http://www.w3.org/2000/svg" xmlns:xlink="http://www.w3.org/1999/xlink" x="0px" y="0px"
	 viewBox="0 0 250 136.9" style="enable-background:new 0 0 250 136.9;" xml:space="preserve">
<style type="text/css">
	.st0{font-family:'TradeGothicLTStd-Bd2';}
	.st1{font-size:11.5334px;}
</style>
<g>
	<g>
		<g>
			<path d="M168.7,93.2c3.6-4,5.9-8.9,6-14.9c0-1.1,0-2.1-0.1-3h12.4l6.3-18.4c0,0-8.4,6.1-19.4,6.1c-1,0-2.7,0-4.7,0
				c-6.1-6.9-16.5-10.5-26.7-13.8c-16-5-19.1-6.4-19-10.2c0.2-5,7.2-8.8,17.6-8c9.1,0.7,14.3,3.6,17.2,6.5c3.4,3.4,4,7.7,4,7.7
				c3.1-3.4,10.6-14.9,10.6-14.9c-10.2-7.2-19.5-11.1-34.1-11.3c-15.6-0.2-31.6,6.5-33,22.2c-0.8,8.8,2.6,17.3,18.3,23.1
				c15.5,5.7,31.2,7.3,30.2,18.3c-0.5,5.7-9.8,12-22.1,9.9c-7.1-1.2-11.6-3.5-14.9-6.2c-3.5-2.9-4.7-5.6-5.3-6.4
				c-0.1-0.1-10.9,10.8-10.9,10.8c3.5,2.2,14.9,12,33,14.6c3.7,0.5,8.2,0.3,12.8-0.6l-21.2,11.3L0.8,49.5l124.9,87.4l124.9-87.4
				L168.7,93.2z"/>
			<path d="M66.4,18.1c2.3,1.1,2.6,3.9,2.6,6.6v44c0,3.2-1.7,5.3-4.3,6.6h72.4c-4.7-6.1-19.6-11.8-20.4-12.2
				c-11.8-0.2-24.7,0.1-26.2,0V20.4c0-3.6,1.9-6.1,5.3-6.6c9.5-0.8,19.2-1.2,29.1-1.2c49.1,0,93.4,10.1,125,26.4
				C223.2,15.5,177.2,0,125,0C72.8,0,26.8,15.5,0,38.9c17.6-9,39.1-16.2,63.2-20.7C63.9,18,65.4,17.6,66.4,18.1z"/>
		</g>
	</g>
	<text transform="matrix(1 0 0 1 157.626 134.0431)" class="st0 st1">TM</text>
</g>
</svg>
