<?xml version="1.0" encoding="utf-8"?>
<!-- Generator: Adobe Illustrator 19.1.0, SVG Export Plug-In . SVG Version: 6.00 Build 0)  -->
<svg version="1.0" id="Layer_1" xmlns="http://www.w3.org/2000/svg" xmlns:xlink="http://www.w3.org/1999/xlink" x="0px" y="0px"
	 viewBox="0 0 352.9 167.4" style="enable-background:new 0 0 352.9 167.4;" xml:space="preserve">
<style type="text/css">
	.st0{fill:#FFFFFF;}
	.st1{fill:#231F20;}
</style>
<path class="st0" d="M303.4,103c2.8,0,4.9,1.5,4.9,3.4c0,1.9-2.1,3.5-4.9,3.5c-2.8,0-4.9-1.5-4.9-3.5
	C298.5,104.5,300.6,103,303.4,103z M303.4,110.5c3.3,0,5.9-1.8,5.9-4.1c0-2.2-2.6-4.1-5.9-4.1c-3.3,0-5.9,1.8-5.9,4.1
	C297.4,108.7,300.1,110.5,303.4,110.5z M301.2,108.7c0.2,0,0.4,0,0.7,0c0.2,0,0.4,0,0.7,0v-2.1h0.3l1.8,2.1c0.3,0,0.5,0,0.8,0
	c0.3,0,0.5,0,0.8,0l-0.4-0.4c-0.6-0.6-1.2-1.2-1.7-1.9c0.9-0.1,1.5-0.6,1.5-1.2c0-0.7-0.7-1.1-1.9-1.1h-2.5V108.7z M302.6,104.6h0.5
	c0.5,0,1.1,0,1.1,0.8c0,0.7-0.5,1-1.6,1V104.6z"/>
<g>
	<path d="M177.9,7.7C80.7,7.7,2,41.9,2,84.2c0,42.2,78.7,76.5,175.9,76.5c97.1,0,175.9-34.2,175.9-76.5
		C353.7,41.9,275,7.7,177.9,7.7z M177.9,155.8c-89.4,0-162-32.1-162-71.7c0-39.6,72.5-71.7,162-71.7c89.4,0,162,32.1,162,71.7
		C339.9,123.7,267.4,155.8,177.9,155.8z"/>
	<polygon class="st1" points="78.2,93 99.5,93 96.1,77.9 	"/>
	<path class="st1" d="M312.5,55L312.5,55c-24.5-23-75.3-37.8-134-37.8c-37.6,0-71.9,6.1-98.1,16.4l208.8,21.1L43.5,55h0
		c-9.6,8-15,18.5-15,29.1c0,37.2,66.9,67.2,149.5,67.2c82.6,0,149.5-29.9,149.5-67.1C327.5,73.6,322.1,63,312.5,55z M112.5,110.3
		c-3.4,0-6.7,0.2-10.1,0.3c-0.5-4.8-0.9-9.6-2-13.6h-27c-5.3,5-10,9-14.3,13.5c-1.8-0.1-3.5-0.2-5.4-0.2c-1.9,0-3.8,0.1-5.7,0.2
		l53.8-45c1.4,0.1,2.8,0.2,4.3,0.2s2.9-0.1,4.5-0.2l11.6,45.1C119,110.5,115.8,110.3,112.5,110.3z M144.2,110.6
		c-2.8-0.1-5.7-0.3-8.6-0.3c-2.9,0-5.9,0.2-8.8,0.3l18.3-39.9c-8.2,0-15.8,0.5-22,0.9c0.6-0.9,1.4-1.9,1.9-2.8
		c0.4-0.9,0.5-1.8,0.7-2.8h59.7c-0.7,1-1.4,1.9-1.8,2.8c-0.4,1-0.5,1.9-0.7,2.8c-6.6-0.5-13.3-0.9-20.3-0.9L144.2,110.6z
		 M225.9,86.9c-0.4,0.9-0.5,1.8-0.7,2.7c-4.1-0.3-8.8-0.7-14-0.7h-12.1l-7.6,16.6c11.9-0.1,19.9-0.4,27.2-0.9
		c-0.7,0.9-1.4,1.7-1.9,2.7c-0.4,0.9-0.5,1.7-0.7,2.7H172l20.3-44h44.2c-0.7,1-1.4,1.9-1.9,2.8c-0.4,0.9-0.5,1.9-0.7,2.8
		c-6.8-0.5-14.5-0.9-26.4-0.8L201.1,85h12.1c5.2,0,10.1-0.4,14.5-0.7C227.1,85.2,226.3,86,225.9,86.9z M305.1,75h-1.6
		c-2.7-4-9-6.1-16.5-6.1c-19.3,0-31.8,10.3-36.2,19.8c-5.1,11.1,1.1,18.9,18.9,18.9c7.2,0,16.5-2.1,23-4.9l1.3,0.4l-5.1,5.6
		c-7.9,2-16.5,2.8-24.3,2.8c-24.8,0-39.7-8.6-33.6-21.9c7.8-17,32.2-24.7,57.5-24.7c7.7,0,16.4,1.2,22.2,3.3
		C308.8,70.4,307.1,73,305.1,75z"/>
</g>
</svg>
