<?xml version="1.0" encoding="utf-8"?>
<!-- Generator: Adobe Illustrator 19.0.1, SVG Export Plug-In . SVG Version: 6.00 Build 0)  -->
<svg version="1.1" id="Layer_1" xmlns:sketch="http://www.bohemiancoding.com/sketch/ns"
	 xmlns="http://www.w3.org/2000/svg" xmlns:xlink="http://www.w3.org/1999/xlink" x="0px" y="0px"
	 viewBox="-343.2 310.2 104.6 13.8" style="enable-background:new -343.2 310.2 104.6 13.8;" xml:space="preserve">
<g>
	<g>
		<g>
			<g>
				<path d="M-276.1,314.6h2.4c0.3,0,0.2,0,0.4,0.2c0.4,0.3,0.2,1.1,0.1,1.5c-0.2,0.3-0.3,0.6-0.9,0.7c-0.1,0-1.5,0-2.6,0
					C-276.4,316.1-276.3,315.4-276.1,314.6L-276.1,314.6z M-314.3,322.7h4.7l1.7-6.4l0.6,6.4h2.9l3.9-6.3l-1.8,6.4h9.5
					c0,0,3.5-5.9,5-8.8v6.6l-4.4,2.2h13.9l1.6-5.7l1.5,5.8h5.2l-1.3-5c0.7-0.1,1.9-0.6,2.4-1.3c0.9-1.2,1-3.8,0.1-4.8l0,0l0,0
					c-0.6-0.7-1.9-0.7-2.1-0.7h-9.3l-2.8,10.4l0.1-10.4h-8.4l-5.8,9.5l2.6-9.5h-6.6l-3.6,6v-6h-6.6L-314.3,322.7"/>
				<g>
					<g>
						<g>
							<polygon points="-264.4,322.9 -261.1,311.1 -266.2,311.1 -269.5,322.9 							"/>
						</g>
					</g>
				</g>
				<g>
					<g>
						<g>
							<polygon points="-250,322.9 -246.7,311.2 -251.6,311.2 -253.4,317.1 -254.6,311.1 -260.1,311.1 -263.3,322.8 -258.3,322.8 
								-256.8,317.4 -255.5,322.9 							"/>
						</g>
					</g>
				</g>
				<g>
					<g>
						<g>
							<polygon points="-243.8,322.9 -240.5,311.2 -245.7,311.2 -249,322.9 							"/>
						</g>
					</g>
				</g>
				<g>
					<g>
						<path d="M-331.9,322.9c0.1,0,3.6-0.1,4.8-3.8c1.1-3.2,1.2-5.5,0.3-6.7c-0.6-0.8-1.8-1.3-3.2-1.3h-8.2l-1.1,3.7h4.8l-5.5,2.6
							l-1.5,4.6l2.3-1l-0.5,2H-331.9z M-331.2,317.7c-0.2,0.7-0.4,1.4-1.8,1.5h-2.2c0.1-0.7,0.5-1.7,0.9-3.1l0.4-1.3
							c0.8,0,1.5,0,1.5,0h0.1c1,0,1.1,0,1.4,0.3C-330.5,315.6-331,316.8-331.2,317.7z"/>
					</g>
				</g>
				<g>
					<g>
						<path d="M-320.7,316.3c0,0-0.6,2.5-0.7,2.6l3.7-2.1c0,0,0.3-0.5,0.3-0.8c-0.1-0.7-0.6-0.9-1.4-0.9
							C-318.9,315.2-320.2,315.1-320.7,316.3L-320.7,316.3z M-323.1,323c-0.3,0-5-0.3-2.1-7.5c1.5-3,4.4-3,5.3-3
							c0.8-0.1,4.4-0.1,5.8,1.5c0.4,0.4,0.9,1.3,0.5,3c-0.1,0.7-0.4,1.7-0.7,2h-7c-0.1,0.5-0.3,1,0.4,1.2c0.3,0.1,2.6,0.4,6.3-0.4
							l-1.5,2.6C-316.2,322.4-320.4,323.4-323.1,323z"/>
					</g>
				</g>
			</g>
		</g>
	</g>
	<g>
		<path d="M-242.1,321.5c0.2,0,0.3,0.1,0.6,0.2c0.1,0.1,0.2,0.3,0.2,0.6s-0.1,0.4-0.2,0.6c-0.1,0.1-0.3,0.2-0.6,0.2
			c-0.2,0-0.4-0.1-0.6-0.2s-0.2-0.3-0.2-0.6s0.1-0.4,0.2-0.6C-242.5,321.6-242.3,321.5-242.1,321.5z M-242.1,321.6
			c-0.2,0-0.3,0.1-0.5,0.2s-0.2,0.3-0.2,0.5c0,0.2,0.1,0.3,0.2,0.5c0.1,0.1,0.3,0.2,0.5,0.2c0.2,0,0.3-0.1,0.5-0.2s0.2-0.3,0.2-0.5
			c0-0.2-0.1-0.3-0.2-0.5C-241.8,321.6-242,321.6-242.1,321.6z M-242.5,322.7v-0.8h0.4c0.1,0,0.3,0.1,0.3,0.3c0,0.1-0.1,0.2-0.1,0.2
			c0.1,0,0.1,0.1,0.1,0.1v0.2h-0.1v-0.2c0-0.1-0.1-0.1-0.1-0.1l0,0h-0.3L-242.5,322.7L-242.5,322.7L-242.5,322.7z M-242.4,322.2h0.3
			c0.1,0,0.2-0.1,0.2-0.1c0-0.1,0-0.1,0-0.1s-0.1,0-0.1,0h-0.3L-242.4,322.2L-242.4,322.2z"/>
	</g>
</g>
</svg>
