<?xml version="1.0" encoding="utf-8"?>
<!-- Generator: Adobe Illustrator 24.0.3, SVG Export Plug-In . SVG Version: 6.00 Build 0)  -->
<svg version="1.1" id="Layer_1" xmlns="http://www.w3.org/2000/svg" xmlns:xlink="http://www.w3.org/1999/xlink" x="0px" y="0px"
	 viewBox="0 0 716 132" style="enable-background:new 0 0 716 132;" xml:space="preserve">
<style type="text/css">
	.st0{fill:#1C1C1A;}
</style>
<g>
	<polygon class="st0" points="504.4,48.2 498.1,48.2 498.1,61.4 468.5,61.4 468.5,48.2 462.2,48.2 462.2,80.9 468.5,80.9 
		468.5,67.7 498.1,67.7 498.1,80.9 504.4,80.9 	"/>
	<rect x="524.5" y="48.2" class="st0" width="6.3" height="32.7"/>
	<g>
		<path class="st0" d="M554.9,54.5h33.9v-6.3h-35.9c-3.5,0-6.3,2.8-6.3,6.3v20.1c0,3.5,2.8,6.3,6.3,6.3h35.9v-6.3h-33.9
			c-1.1,0-2-0.9-2-2v-4.9h35.9v-6.3h-35.9v-4.9C552.9,55.4,553.8,54.5,554.9,54.5"/>
		<path class="st0" d="M614.5,74.6c-1.1,0-2-0.9-2-2V48.2h-6.3v26.5c0,3.5,2.8,6.3,6.3,6.3h35.9v-6.3H614.5z"/>
		<path class="st0" d="M444.3,67.7c0-3.5-2.8-6.3-6.3-6.3h-27.9c-1.1,0-2-0.9-2-2v-2.9c0-1.1,0.9-2,2-2H444v-6.3h-35.9
			c-3.5,0-6.3,2.8-6.3,6.3v6.9c0,3.5,2.8,6.3,6.3,6.3l27.9,0c1.1,0,2,0.9,2,2v2.9c0,1.1-0.9,2-2,2h-33.9v6.3H438
			c3.5,0,6.3-2.8,6.3-6.3V67.7z"/>
		<path class="st0" d="M232.8,56.5c0-1.1,0.9-2,2-2h25.9c1.1,0,2,0.9,2,2v2.9c0,1.1-0.9,2-2,2h-27.9V56.5z M262.7,67.7
			c3.5,0,6.3-2.8,6.3-6.3v-6.9c0-3.5-2.8-6.3-6.3-6.3h-29.9c-3.5,0-6.3,2.8-6.3,6.3v6.9v6.3v6.9c0,3.5,2.8,6.3,6.3,6.3h35.9v-6.3
			h-33.9c-1.1,0-2-0.9-2-2v-4.9H262.7z"/>
		<path class="st0" d="M374.7,74.6h-25.9c-1.1,0-2-0.9-2-2V56.5c0-1.1,0.9-2,2-2h25.9c1.1,0,2,0.9,2,2v16.1
			C376.8,73.7,375.9,74.6,374.7,74.6 M383,74.6V54.5c0-3.5-2.8-6.3-6.3-6.3h-29.9c-3.5,0-6.3,2.8-6.3,6.3v20.1
			c0,3.5,2.8,6.3,6.3,6.3h29.9C380.2,80.9,383,78.1,383,74.6"/>
		<path class="st0" d="M695,70.5c-0.3,2.3-2.4,4.2-4.8,4.2h-25.1V54.5h25.1c2.4,0,4.4,1.8,4.8,4.1h0L695,70.5L695,70.5z M701.3,58.6
			L701.3,58.6c-0.4-5.8-5.2-10.4-11.1-10.4h-31.4v32.7h31.4c5.9,0,10.7-4.6,11.1-10.4V58.6z"/>
		<path class="st0" d="M318.8,48.2l-11.9,25.2h0c-0.2,0.5-0.6,0.9-1.2,1.1c-0.1,0-0.5,0.1-0.6,0.1c-0.8,0.1-1.4-0.1-1.7-0.1
			c-0.5-0.2-1-0.6-1.2-1.1v0l-11.9-25.2h-7.2L296.7,77l0,0c1,2.2,3.2,3.8,5.8,3.8h4.1c2.2,0,4.2-1.2,5.3-2.9L326,48.2H318.8z"/>
	</g>
	<path class="st0" d="M706.7,82.8l0.1-0.1V82l-0.1-0.1h-0.9v1H706.7z M704.9,81.1h2.3l0.6,0.6v1.1l-0.4,0.4l0.5,1.5H707l-0.4-1.2
		h-0.7v1.2h-0.9V81.1z M708.1,85.6l0.6-0.6v-4.1l-0.6-0.6h-3.5l-0.6,0.6V85l0.6,0.6H708.1z M703.1,85.3v-4.7l1.1-1.1h4.2l1.1,1.1
		v4.7l-1.1,1.1h-4.2L703.1,85.3z"/>
	<g>
		<path class="st0" d="M92.5,127.9c-2,0-4-0.5-5.7-1.5L5.8,75.7l13.8-3.8c1-0.3,2-0.4,3-0.4c1.8,0,3.5,0.4,5.1,1.2l58.1,28.7
			c2.1,1,4.4,1.6,6.7,1.6c2.3,0,4.6-0.6,6.7-1.6l58.1-28.7c1.6-0.8,3.3-1.2,5.1-1.2c1,0,2,0.1,3,0.4l13.8,3.8l-80.9,50.6
			C96.5,127.4,94.5,127.9,92.5,127.9"/>
		<path class="st0" d="M20.9,54.5c3.2-0.9,5.8-3.1,7.3-6l8.6-18.1c2-4,5.7-5,9.3-5.9L74,16.5c3.5-0.9,6.1-3.1,7.9-6.3
			c0.9-1.6,2.2-4.2,3.2-6.2L34.3,15.3c-1.9,0.4-3.6,1.6-4.6,3.3L4,59.9L20.9,54.5z"/>
		<path class="st0" d="M164,54.5c-3.2-0.9-5.8-3.1-7.3-6l-8.6-18.1c-2-4-5.7-5-9.3-5.9l-27.9-7.9c-3.5-0.9-6.1-3.1-7.9-6.3
			c-0.9-1.6-2.2-4.2-3.2-6.2l50.8,11.2c1.9,0.4,3.6,1.6,4.6,3.3l25.7,41.4L164,54.5z"/>
	</g>
</g>
</svg>
