<?xml version="1.0" encoding="utf-8"?>
<!-- Generator: Adobe Illustrator 21.0.2, SVG Export Plug-In . SVG Version: 6.00 Build 0)  -->
<svg version="1.1" id="Layer_1" xmlns="http://www.w3.org/2000/svg" xmlns:xlink="http://www.w3.org/1999/xlink" x="0px" y="0px"
	 viewBox="0 0 299 216" style="enable-background:new 0 0 299 216;" xml:space="preserve">
<style type="text/css">
	.st0{fill:none;}
</style>
<g>
	<g>
		<path d="M72.4,61.3c0.1-0.2,8-16.8,10.5-22.6c2.4-5.3,7.8-7.3,7.8-7.3c0.2-0.1,23.4-7.5,34.9-10.5c8.8-2.3,9.2-7,9.2-7.2v-0.4
			l-0.4,0.1L82.2,26.7c-2.7,0.8-4.9,2.6-6.6,5.5l-0.1,0.2L51.9,69.8l-0.3,0.4h0.5c0.3,0,0.7,0,1,0l0,0
			C68.1,70.3,72.3,61.4,72.4,61.3z"/>
		<path d="M220.9,83.1c-6.2,0-11.8,3-11.8,3c-0.2,0.1-17.5,8.1-37,19.2c-21.2,12.1-27.5,12.4-28.3,12.4l0,0h-0.1l0,0
			c-0.7,0-7-0.4-28.2-12.5c-19.5-11-36.8-19-36.9-19.1c-0.1,0-5.7-3.1-11.8-3.1c-4.4,0-8,1.5-10.8,4.4l-0.3,0.3L56,88l82.8,50.4
			c1.6,0.8,3.3,1.2,5,1.3l0,0l0,0c1.7,0,3.4-0.4,5-1.3L231.6,88l0.3-0.2l-0.2-0.3C228.9,84.7,225.3,83.1,220.9,83.1z"/>
		<path d="M235.7,69.9l-23.5-37.4l-0.1-0.2c-1.7-2.9-4-4.8-6.6-5.6l-52.3-13.3l-0.4-0.1v0.4c0,0.2,0.4,4.9,9.2,7.2
			c11.5,3,34.7,10.5,34.9,10.6c0.1,0,5.4,1.9,7.8,7.3c2.5,5.8,10.4,22.4,10.5,22.6c0,0.1,4.2,9,19.2,9c0.3,0,0.6,0,1,0h0.5
			L235.7,69.9z"/>
	</g>
</g>
<g>
	<polygon points="167.2,168.6 163.6,168.6 163.6,176.3 146.4,176.3 146.4,168.6 142.8,168.6 142.8,187.5 146.4,187.5 146.4,179.9 
		163.6,179.9 163.6,187.5 167.2,187.5 	"/>
	<rect x="178.8" y="168.6" width="3.6" height="18.9"/>
	<path d="M196.4,172.3H216v-3.6h-20.7c-2,0-3.6,1.6-3.6,3.6v11.6c0,2,1.6,3.6,3.6,3.6H216v-3.6h-19.6c-0.6,0-1.2-0.5-1.2-1.2v-2.8
		H216v-3.6h-20.7v-2.8C195.2,172.8,195.7,172.3,196.4,172.3z"/>
	<path d="M230.8,183.9c-0.6,0-1.2-0.5-1.2-1.2v-14.1H226v15.3c0,2,1.6,3.6,3.6,3.6h20.7v-3.6H230.8z"/>
	<path d="M132.5,179.9c0-2-1.6-3.6-3.6-3.6l0,0h-16.1c-0.6,0-1.2-0.5-1.2-1.2v-1.7c0-0.6,0.5-1.2,1.2-1.2h19.6v-3.6h-20.7
		c-2,0-3.6,1.6-3.6,3.6v4c0,2,1.6,3.6,3.6,3.6h16.1c0.6,0,1.2,0.5,1.2,1.2v1.7c0,0.6-0.5,1.2-1.2,1.2h-19.6v3.6h20.7
		c2,0,3.6-1.6,3.6-3.6L132.5,179.9L132.5,179.9z"/>
	<g>
		<path d="M27.6,179.9c2,0,3.6-1.6,3.6-3.6v-4c0-2-1.6-3.6-3.6-3.6H10.3c-2,0-3.6,1.6-3.6,3.6v4v3.6v4c0,2,1.6,3.6,3.6,3.6H31v-3.6
			H11.5c-0.6,0-1.2-0.5-1.2-1.2v-2.8H27.6z M10.3,173.4c0-0.6,0.5-1.2,1.2-1.2h14.9c0.6,0,1.2,0.5,1.2,1.2v1.7
			c0,0.6-0.5,1.2-1.2,1.2H10.3V173.4z"/>
	</g>
	<g>
		<path d="M97.1,183.9v-11.6c0-2-1.6-3.6-3.6-3.6H76.2c-2,0-3.6,1.6-3.6,3.6v11.6c0,2,1.6,3.6,3.6,3.6h17.3
			C95.5,187.5,97.1,185.9,97.1,183.9L97.1,183.9z M92.3,183.9H77.4c-0.6,0-1.2-0.5-1.2-1.2v-9.3c0-0.6,0.5-1.2,1.2-1.2h14.9
			c0.6,0,1.2,0.5,1.2,1.2v9.3C93.5,183.4,93,183.9,92.3,183.9z"/>
	</g>
	<g>
		<path d="M280.9,174.7L280.9,174.7c-0.2-3.4-3-6-6.4-6h-18.1v18.9h18.1c3.4,0,6.2-2.7,6.4-6l0,0V174.7z M277.3,181.5
			c-0.2,1.4-1.3,2.4-2.8,2.4l0,0H260v-11.6h14.5l0,0c1.4,0,2.6,1,2.8,2.4l0,0V181.5L277.3,181.5z"/>
	</g>
	<g>
		<path d="M60,168.7l-6.9,14.5l0,0c-0.1,0.3-0.4,0.5-0.7,0.6c-0.1,0-0.3,0.1-0.4,0.1c-0.4,0-0.8,0-1-0.1c-0.3-0.1-0.6-0.3-0.7-0.6
			l0,0l-6.9-14.5h-4.2l7.9,16.7l0,0c0.6,1.3,1.8,2.2,3.3,2.2h2.3c1.3,0,2.4-0.7,3.1-1.7l8.1-17.2H60z"/>
		<line class="st0" x1="50.4" y1="183.2" x2="50.4" y2="183.2"/>
	</g>
</g>
<path d="M287.4,190.9c0.4,0,0.8,0.1,1.2,0.3c0.4,0.2,0.7,0.5,0.9,0.9c0.2,0.4,0.3,0.8,0.3,1.3c0,0.4-0.1,0.8-0.3,1.2
	c-0.2,0.4-0.5,0.7-0.9,0.9s-0.8,0.3-1.2,0.3c-0.4,0-0.8-0.1-1.2-0.3c-0.4-0.2-0.7-0.5-0.9-0.9c-0.2-0.4-0.3-0.8-0.3-1.2
	s0.1-0.9,0.3-1.3c0.2-0.4,0.5-0.7,0.9-0.9C286.6,191,287,190.9,287.4,190.9z M287.4,191.3c-0.4,0-0.7,0.1-1,0.3s-0.6,0.4-0.8,0.8
	c-0.2,0.3-0.3,0.7-0.3,1c0,0.4,0.1,0.7,0.3,1c0.2,0.3,0.4,0.6,0.8,0.8c0.3,0.2,0.7,0.3,1,0.3c0.4,0,0.7-0.1,1-0.3s0.6-0.4,0.8-0.8
	c0.2-0.3,0.3-0.7,0.3-1c0-0.4-0.1-0.7-0.3-1c-0.2-0.3-0.4-0.6-0.8-0.8C288.1,191.4,287.7,191.3,287.4,191.3z M286.3,194.8v-2.7h0.9
	c0.3,0,0.5,0,0.7,0.1c0.1,0.1,0.3,0.1,0.3,0.3c0.1,0.1,0.1,0.3,0.1,0.4c0,0.2-0.1,0.4-0.2,0.5s-0.3,0.2-0.6,0.2
	c0.1,0,0.2,0.1,0.2,0.1c0.1,0.1,0.2,0.3,0.4,0.5l0.3,0.5H288l-0.2-0.4c-0.2-0.3-0.3-0.5-0.5-0.6c-0.1-0.1-0.2-0.1-0.3-0.1h-0.3v1.1
	L286.3,194.8L286.3,194.8z M286.7,193.2h0.5c0.3,0,0.4,0,0.5-0.1s0.1-0.2,0.1-0.3s0-0.2-0.1-0.2c0-0.1-0.1-0.1-0.2-0.1s-0.2,0-0.4,0
	h-0.5v0.7H286.7z"/>
</svg>
