<?xml version="1.0" encoding="utf-8"?>
<!-- Generator: Adobe Illustrator 23.0.4, SVG Export Plug-In . SVG Version: 6.00 Build 0)  -->
<svg version="1.1" id="Layer_1" xmlns="http://www.w3.org/2000/svg" xmlns:xlink="http://www.w3.org/1999/xlink" x="0px" y="0px"
	 viewBox="0 0 35 23" style="enable-background:new 0 0 35 23;" xml:space="preserve">
<style type="text/css">
	.st0{fill:#FFFFFF;}
	.st1{fill:#B22234;}
	.st2{fill:#3C3B6E;}
</style>
<g>
	<polygon class="st0" points="0,12.4 0,14.2 35,14.2 35,12.4 15.5,12.4 	"/>
	<rect y="14.2" class="st1" width="35" height="1.8"/>
	<rect y="17.7" class="st1" width="35" height="1.8"/>
	<rect x="15.5" y="10.6" class="st1" width="19.5" height="1.8"/>
	<rect y="21.2" class="st1" width="35" height="1.8"/>
	<rect y="19.5" class="st0" width="35" height="1.8"/>
	<rect y="15.9" class="st0" width="35" height="1.8"/>
	<rect x="15.5" y="3.5" class="st1" width="19.5" height="1.8"/>
	<rect x="15.5" class="st1" width="19.5" height="1.8"/>
	<rect x="15.5" y="8.8" class="st0" width="19.5" height="1.8"/>
	<rect x="15.5" y="1.8" class="st0" width="19.5" height="1.8"/>
	<rect x="15.5" y="7.1" class="st1" width="19.5" height="1.8"/>
	<rect x="15.5" y="5.3" class="st0" width="19.5" height="1.8"/>
	<path class="st2" d="M15.5,10.6V8.8V7.1V5.3V3.5V1.8V0H0v1.8v1.8v1.8v1.8v1.8v1.8v1.8h15.5V10.6z M1.6,11.8l-0.4-0.3l-0.4,0.3
		l0.1-0.5L0.7,11h0.4l0.1-0.2l0,0l0-0.1l0-0.1l0,0.1l0,0.1l0,0L1.4,11h0.4l-0.4,0.3L1.6,11.8z M1.5,8.8L1.5,8.8L1.6,9l0,0l0.1,0.2
		L1.4,9L1.3,9l0,0l0,0L1.2,9L0.9,9.3L1,9l0,0l0-0.2l0,0L0.7,8.5h0.4L1.3,8l0.1,0.5h0.4L1.5,8.8z M1.5,6.3l0.1,0.5L1.3,6.5L0.9,6.8
		l0.1-0.5L0.7,6h0.4l0.1-0.5L1.4,6h0.4L1.5,6.3z M1.6,3.8L1.6,3.8L1.5,3.9l0.1,0.5L1.3,4L0.9,4.3l0.1-0.5L1,3.8l-0.1,0L0.7,3.6h0.4
		l0,0l0.1-0.4l0.1,0.4l0,0h0.4L1.6,3.8z M1.5,1.4l0.1,0.4l0,0.1L1.5,1.8L1.3,1.6L1.1,1.8L0.9,1.9l0-0.1l0.1-0.4L0.7,1.1h0.4l0.1-0.5
		l0.1,0.5h0.4L1.5,1.4z M2.9,10.5l-0.4-0.3l-0.4,0.3L2.4,10L2,9.8h0.4l0.1-0.5l0.1,0.5h0.4L2.8,10L2.9,10.5z M3.1,7.3L2.8,7.6L2.9,8
		L2.6,7.8L2.2,8l0.1-0.5L2,7.3l0,0h0.4l0,0l0.1-0.2l0.1-0.3l0.1,0.3l0.1,0.2l0,0L3.1,7.3L3.1,7.3z M2.8,5.1l0.1,0.2l0.1,0.2l0,0l0,0
		l0,0l-0.1,0L2.6,5.3l0,0l0,0L2.3,5.5l-0.1,0l0,0l0,0l0,0l0.1-0.2l0.1-0.2L2,4.8h0.4l0.1-0.5l0.1,0.5h0.4L2.8,5.1z M2.8,2.6l0.1,0.5
		L2.6,2.8L2.2,3.1l0.1-0.5L2,2.3h0.4l0.1-0.3l0,0l0-0.1l0,0.1l0,0l0.1,0.3h0.4L2.8,2.6z M4.2,11.8l-0.4-0.3l-0.4,0.3l0.1-0.5L3.3,11
		h0.4l0.1-0.2l0,0l0-0.1l0-0.1l0,0.1l0,0.1l0,0L4,11h0.4l-0.4,0.3L4.2,11.8z M4.1,8.8L4.1,8.8L4.2,9l0,0l0.1,0.2L3.9,9L3.9,9l0,0
		l0,0L3.8,9L3.5,9.3L3.6,9l0,0l0-0.2l0,0L3.3,8.5h0.4L3.9,8L4,8.5h0.4L4.1,8.8z M4.1,6.3l0.1,0.5L3.9,6.5L3.5,6.8l0.1-0.5L3.3,6h0.4
		l0.1-0.5L4,6h0.4L4.1,6.3z M4.2,3.8L4.2,3.8L4.1,3.9l0.1,0.5L3.9,4L3.5,4.3l0.1-0.5L3.6,3.8l-0.1,0L3.3,3.6h0.4l0,0l0.1-0.4L4,3.5
		l0,0h0.4L4.2,3.8z M4.1,1.4l0.1,0.4l0,0.1L4.1,1.8L3.9,1.6L3.6,1.8L3.5,1.9l0-0.1l0.1-0.4L3.3,1.1h0.4l0.1-0.5L4,1.1h0.4L4.1,1.4z
		 M5.5,10.5l-0.4-0.3l-0.4,0.3L5,10L4.6,9.8H5l0.1-0.5l0.1,0.5h0.4L5.4,10L5.5,10.5z M5.7,7.3L5.4,7.6L5.5,8L5.2,7.8L4.8,8L5,7.6
		L4.6,7.3l0,0H5l0,0l0.1-0.2l0.1-0.3l0.1,0.3l0.1,0.2l0,0L5.7,7.3L5.7,7.3z M5.4,5.1l0.1,0.2l0.1,0.2l0,0l0,0l0,0l-0.1,0L5.2,5.3
		l0,0l0,0L4.9,5.5l-0.1,0l0,0l0,0l0,0l0.1-0.2L5,5.1L4.6,4.8H5l0.1-0.5l0.1,0.5h0.4L5.4,5.1z M5.4,2.6l0.1,0.5L5.2,2.8L4.8,3.1
		L5,2.6L4.6,2.3H5l0.1-0.3l0,0l0-0.1l0,0.1l0,0l0.1,0.3h0.4L5.4,2.6z M6.8,11.8l-0.4-0.3l-0.4,0.3l0.1-0.5L5.9,11h0.4l0.1-0.2l0,0
		l0-0.1l0-0.1l0,0.1l0,0.1l0,0L6.6,11H7l-0.4,0.3L6.8,11.8z M6.7,8.8L6.7,8.8L6.7,9l0,0l0.1,0.2L6.5,9L6.5,9l0,0l0,0L6.4,9L6.1,9.3
		L6.2,9l0,0l0-0.2l0,0L5.9,8.5h0.4L6.5,8l0.1,0.5H7L6.7,8.8z M6.7,6.3l0.1,0.5L6.5,6.5L6.1,6.8l0.1-0.5L5.9,6h0.4l0.1-0.5L6.6,6H7
		L6.7,6.3z M6.8,3.8L6.8,3.8L6.7,3.9l0.1,0.5L6.5,4L6.1,4.3l0.1-0.5L6.2,3.8l-0.1,0L5.9,3.6h0.4l0,0l0.1-0.4l0.1,0.4l0,0H7L6.8,3.8z
		 M6.7,1.4l0.1,0.4l0,0.1L6.7,1.8L6.5,1.6L6.2,1.8L6.1,1.9l0-0.1l0.1-0.4L5.9,1.1h0.4l0.1-0.5l0.1,0.5H7L6.7,1.4z M8.1,10.5
		l-0.4-0.3l-0.4,0.3L7.5,10L7.2,9.8h0.4l0.1-0.5l0.1,0.5h0.4L8,10L8.1,10.5z M8.3,7.3L8,7.6L8.1,8L7.8,7.8L7.4,8l0.1-0.5L7.2,7.3
		l0,0h0.4l0,0l0.1-0.2l0.1-0.3l0.1,0.3l0.1,0.2l0,0L8.3,7.3L8.3,7.3z M8,5.1L8,5.3l0.1,0.2l0,0l0,0l0,0L8,5.5L7.8,5.3l0,0l0,0
		L7.5,5.5l-0.1,0l0,0l0,0l0,0l0.1-0.2l0.1-0.2L7.2,4.8h0.4l0.1-0.5l0.1,0.5h0.4L8,5.1z M8,2.6l0.1,0.5L7.8,2.8L7.4,3.1l0.1-0.5
		L7.2,2.3h0.4l0.1-0.3l0,0l0-0.1l0,0.1l0,0l0.1,0.3h0.4L8,2.6z M9.4,11.8L9,11.5l-0.4,0.3l0.1-0.5L8.5,11h0.4L9,10.8l0,0l0-0.1
		l0-0.1l0,0.1l0,0.1l0,0L9.2,11h0.4l-0.4,0.3L9.4,11.8z M9.3,8.8L9.3,8.8L9.3,9l0,0l0.1,0.2L9.1,9L9.1,9l0,0l0,0L9,9L8.7,9.3L8.8,9
		l0,0l0-0.2l0,0L8.5,8.5h0.4L9,8l0.1,0.5h0.4L9.3,8.8z M9.3,6.3l0.1,0.5L9,6.5L8.7,6.8l0.1-0.5L8.5,6h0.4L9,5.6L9.2,6h0.4L9.3,6.3z
		 M9.4,3.8L9.4,3.8L9.3,3.9l0.1,0.5L9,4L8.7,4.3l0.1-0.5L8.8,3.8l-0.1,0L8.5,3.6h0.4l0,0L9,3.1l0.1,0.4l0,0h0.4L9.4,3.8z M9.3,1.4
		l0.1,0.4l0,0.1L9.3,1.8L9,1.6L8.8,1.8L8.7,1.9l0-0.1l0.1-0.4L8.5,1.1h0.4L9,0.6l0.1,0.5h0.4L9.3,1.4z M10.7,10.5l-0.4-0.3L10,10.5
		l0.1-0.5L9.8,9.8h0.4l0.1-0.5l0.1,0.5h0.4L10.6,10L10.7,10.5z M10.9,7.3l-0.3,0.3L10.7,8l-0.4-0.3L10,8l0.1-0.5L9.8,7.3l0,0h0.4
		l0,0l0.1-0.2l0.1-0.3l0.1,0.3l0.1,0.2l0,0L10.9,7.3L10.9,7.3z M10.6,5.1l0.1,0.2l0.1,0.2l0,0l0,0l0,0l-0.1,0l-0.2-0.2l0,0l0,0
		l-0.2,0.2l-0.1,0l0,0l0,0l0,0l0.1-0.2l0.1-0.2L9.8,4.8h0.4l0.1-0.5l0.1,0.5h0.4L10.6,5.1z M10.6,2.6l0.1,0.5l-0.4-0.3L10,3.1
		l0.1-0.5L9.8,2.3h0.4l0.1-0.3l0,0l0-0.1l0,0.1l0,0l0.1,0.3h0.4L10.6,2.6z M12,11.8l-0.4-0.3l-0.4,0.3l0.1-0.5L11.1,11h0.4l0.1-0.2
		l0,0l0-0.1l0-0.1l0,0.1l0,0.1l0,0l0.1,0.2h0.4l-0.4,0.3L12,11.8z M11.9,8.8L11.9,8.8L11.9,9l0,0L12,9.3L11.7,9l-0.1,0l0,0l0,0
		l-0.1,0l-0.3,0.2L11.3,9l0,0l0-0.2l0,0l-0.4-0.3h0.4L11.6,8l0.1,0.5h0.4L11.9,8.8z M11.9,6.3L12,6.8l-0.4-0.3l-0.4,0.3l0.1-0.5
		L11.1,6h0.4l0.1-0.5L11.8,6h0.4L11.9,6.3z M12,3.8L12,3.8l-0.1,0.1L12,4.3L11.6,4l-0.4,0.3l0.1-0.5l-0.1-0.1l-0.1,0l-0.2-0.2h0.4
		l0,0l0.1-0.4l0.1,0.4l0,0h0.4L12,3.8z M11.9,1.4L12,1.8l0,0.1l-0.1-0.1l-0.2-0.2l-0.2,0.2l-0.1,0.1l0-0.1l0.1-0.4l-0.4-0.3h0.4
		l0.1-0.5l0.1,0.5h0.4L11.9,1.4z M13.3,10.5l-0.4-0.3l-0.4,0.3l0.1-0.5l-0.4-0.3h0.4l0.1-0.5l0.1,0.5h0.4L13.2,10L13.3,10.5z
		 M13.5,7.3l-0.3,0.3L13.3,8l-0.4-0.3L12.6,8l0.1-0.5l-0.3-0.3l0,0h0.4l0,0l0.1-0.2l0.1-0.3L13,7.1l0.1,0.2l0,0L13.5,7.3L13.5,7.3z
		 M13.2,5.1l0.1,0.2l0.1,0.2l0,0l0,0l0,0l-0.1,0L13,5.3l0,0l0,0l-0.2,0.2l-0.1,0l0,0l0,0l0,0l0.1-0.2l0.1-0.2l-0.4-0.3h0.4l0.1-0.5
		l0.1,0.5h0.4L13.2,5.1z M13.2,2.6l0.1,0.5l-0.4-0.3l-0.4,0.3l0.1-0.5l-0.4-0.3h0.4l0.1-0.3l0,0l0-0.1L13,2l0,0l0.1,0.3h0.4
		L13.2,2.6z M14.6,11.8l-0.4-0.3l-0.4,0.3l0.1-0.5L13.6,11h0.4l0.1-0.2l0,0l0-0.1l0-0.1l0,0.1l0,0.1l0,0l0.1,0.2h0.4l-0.4,0.3
		L14.6,11.8z M14.4,8.8L14.4,8.8L14.5,9l0,0l0.1,0.2L14.3,9l-0.1,0l0,0l0,0l-0.1,0l-0.3,0.2L13.9,9l0,0l0-0.2l0,0l-0.4-0.3h0.4
		L14.2,8l0.1,0.5h0.4L14.4,8.8z M14.4,6.3l0.1,0.5l-0.4-0.3l-0.4,0.3L14,6.3L13.6,6h0.4l0.1-0.5L14.4,6h0.4L14.4,6.3z M14.6,3.8
		L14.6,3.8l-0.1,0.1l0.1,0.5L14.2,4l-0.4,0.3L14,3.9l-0.1-0.1l-0.1,0l-0.2-0.2h0.4l0,0l0.1-0.4l0.1,0.4l0,0h0.4L14.6,3.8z M14.4,1.4
		l0.1,0.4l0,0.1l-0.1-0.1l-0.2-0.2L14,1.8l-0.1,0.1l0-0.1L14,1.4l-0.4-0.3h0.4l0.1-0.5l0.1,0.5h0.4L14.4,1.4z"/>
	<polygon class="st0" points="1.4,11 1.4,10.8 1.4,10.7 1.3,10.6 1.3,10.5 1.3,10.6 1.2,10.7 1.2,10.8 1.2,11 0.7,11 1.1,11.3 
		0.9,11.8 1.3,11.5 1.6,11.8 1.5,11.3 1.9,11 	"/>
	<polygon class="st0" points="4,11 4,10.8 3.9,10.7 3.9,10.6 3.9,10.5 3.8,10.6 3.8,10.7 3.8,10.8 3.7,11 3.3,11 3.7,11.3 3.5,11.8 
		3.9,11.5 4.2,11.8 4.1,11.3 4.5,11 	"/>
	<polygon class="st0" points="6.6,11 6.5,10.8 6.5,10.7 6.5,10.6 6.5,10.5 6.4,10.6 6.4,10.7 6.4,10.8 6.3,11 5.9,11 6.2,11.3 
		6.1,11.8 6.5,11.5 6.8,11.8 6.7,11.3 7,11 	"/>
	<polygon class="st0" points="9.2,11 9.1,10.8 9.1,10.7 9.1,10.6 9,10.5 9,10.6 9,10.7 9,10.8 8.9,11 8.5,11 8.8,11.3 8.7,11.8 
		9,11.5 9.4,11.8 9.3,11.3 9.6,11 	"/>
	<polygon class="st0" points="11.8,11 11.7,10.8 11.7,10.7 11.7,10.6 11.6,10.5 11.6,10.6 11.6,10.7 11.6,10.8 11.5,11 11.1,11 
		11.4,11.3 11.3,11.8 11.6,11.5 12,11.8 11.9,11.3 12.2,11 	"/>
	<polygon class="st0" points="14.4,11 14.3,10.8 14.3,10.7 14.2,10.6 14.2,10.5 14.2,10.6 14.2,10.7 14.1,10.8 14.1,11 13.6,11 
		14,11.3 13.9,11.8 14.2,11.5 14.6,11.8 14.4,11.3 14.8,11 	"/>
	<polygon class="st0" points="1.3,8 1.2,8.5 0.7,8.5 1.1,8.8 1.1,8.8 1,9 1,9 0.9,9.3 1.2,9 1.3,9 1.3,9 1.3,9 1.4,9 1.6,9.3 1.6,9 
		1.6,9 1.5,8.8 1.5,8.8 1.9,8.5 1.4,8.5 	"/>
	<polygon class="st0" points="3.9,8 3.7,8.5 3.3,8.5 3.7,8.8 3.6,8.8 3.6,9 3.6,9 3.5,9.3 3.8,9 3.9,9 3.9,9 3.9,9 3.9,9 4.2,9.3 
		4.2,9 4.2,9 4.1,8.8 4.1,8.8 4.5,8.5 4,8.5 	"/>
	<polygon class="st0" points="6.5,8 6.3,8.5 5.9,8.5 6.2,8.8 6.2,8.8 6.2,9 6.2,9 6.1,9.3 6.4,9 6.4,9 6.5,9 6.5,9 6.5,9 6.8,9.3 
		6.8,9 6.7,9 6.7,8.8 6.7,8.8 7,8.5 6.6,8.5 	"/>
	<polygon class="st0" points="9,8 8.9,8.5 8.5,8.5 8.8,8.8 8.8,8.8 8.8,9 8.8,9 8.7,9.3 9,9 9,9 9,9 9.1,9 9.1,9 9.4,9.3 9.3,9 
		9.3,9 9.3,8.8 9.3,8.8 9.6,8.5 9.2,8.5 	"/>
	<polygon class="st0" points="11.6,8 11.5,8.5 11.1,8.5 11.4,8.8 11.4,8.8 11.4,9 11.3,9 11.3,9.3 11.6,9 11.6,9 11.6,9 11.7,9 
		11.7,9 12,9.3 11.9,9 11.9,9 11.9,8.8 11.9,8.8 12.2,8.5 11.8,8.5 	"/>
	<polygon class="st0" points="14.2,8 14.1,8.5 13.6,8.5 14,8.8 14,8.8 13.9,9 13.9,9 13.9,9.3 14.1,9 14.2,9 14.2,9 14.2,9 14.3,9 
		14.6,9.3 14.5,9 14.5,9 14.4,8.8 14.4,8.8 14.8,8.5 14.4,8.5 	"/>
	<polygon class="st0" points="1.3,5.6 1.2,6 0.7,6 1.1,6.3 0.9,6.8 1.3,6.5 1.6,6.8 1.5,6.3 1.9,6 1.4,6 	"/>
	<polygon class="st0" points="3.9,5.6 3.7,6 3.3,6 3.7,6.3 3.5,6.8 3.9,6.5 4.2,6.8 4.1,6.3 4.5,6 4,6 	"/>
	<polygon class="st0" points="6.5,5.6 6.3,6 5.9,6 6.2,6.3 6.1,6.8 6.5,6.5 6.8,6.8 6.7,6.3 7,6 6.6,6 	"/>
	<polygon class="st0" points="9,5.6 8.9,6 8.5,6 8.8,6.3 8.7,6.8 9,6.5 9.4,6.8 9.3,6.3 9.6,6 9.2,6 	"/>
	<polygon class="st0" points="11.6,5.6 11.5,6 11.1,6 11.4,6.3 11.3,6.8 11.6,6.5 12,6.8 11.9,6.3 12.2,6 11.8,6 	"/>
	<polygon class="st0" points="14.2,5.6 14.1,6 13.6,6 14,6.3 13.9,6.8 14.2,6.5 14.6,6.8 14.4,6.3 14.8,6 14.4,6 	"/>
	<polygon class="st0" points="1.4,3.5 1.3,3.1 1.2,3.5 1.2,3.6 0.7,3.6 0.9,3.8 1,3.8 1.1,3.9 0.9,4.3 1.3,4 1.6,4.3 1.5,3.9 
		1.6,3.8 1.6,3.8 1.9,3.6 1.4,3.6 	"/>
	<polygon class="st0" points="4,3.5 3.9,3.1 3.8,3.5 3.7,3.6 3.3,3.6 3.5,3.8 3.6,3.8 3.7,3.9 3.5,4.3 3.9,4 4.2,4.3 4.1,3.9 
		4.2,3.8 4.2,3.8 4.5,3.6 4,3.6 	"/>
	<polygon class="st0" points="6.6,3.5 6.5,3.1 6.3,3.5 6.3,3.6 5.9,3.6 6.1,3.8 6.2,3.8 6.2,3.9 6.1,4.3 6.5,4 6.8,4.3 6.7,3.9 
		6.8,3.8 6.8,3.8 7,3.6 6.6,3.6 	"/>
	<polygon class="st0" points="9.2,3.5 9,3.1 8.9,3.5 8.9,3.6 8.5,3.6 8.7,3.8 8.8,3.8 8.8,3.9 8.7,4.3 9,4 9.4,4.3 9.3,3.9 9.3,3.8 
		9.4,3.8 9.6,3.6 9.2,3.6 	"/>
	<polygon class="st0" points="11.8,3.5 11.6,3.1 11.5,3.5 11.5,3.6 11.1,3.6 11.3,3.8 11.3,3.8 11.4,3.9 11.3,4.3 11.6,4 12,4.3 
		11.9,3.9 11.9,3.8 12,3.8 12.2,3.6 11.8,3.6 	"/>
	<polygon class="st0" points="14.3,3.5 14.2,3.1 14.1,3.5 14.1,3.6 13.6,3.6 13.9,3.8 13.9,3.8 14,3.9 13.9,4.3 14.2,4 14.6,4.3 
		14.4,3.9 14.5,3.8 14.6,3.8 14.8,3.6 14.4,3.6 	"/>
	<polygon class="st0" points="2.6,2.1 2.6,2 2.6,1.9 2.6,2 2.5,2.1 2.5,2.3 2,2.3 2.4,2.6 2.2,3.1 2.6,2.8 2.9,3.1 2.8,2.6 3.2,2.3 
		2.7,2.3 	"/>
	<polygon class="st0" points="5.2,2.1 5.2,2 5.2,1.9 5.1,2 5.1,2.1 5,2.3 4.6,2.3 5,2.6 4.8,3.1 5.2,2.8 5.5,3.1 5.4,2.6 5.8,2.3 
		5.3,2.3 	"/>
	<polygon class="st0" points="7.8,2.1 7.8,2 7.8,1.9 7.7,2 7.7,2.1 7.6,2.3 7.2,2.3 7.5,2.6 7.4,3.1 7.8,2.8 8.1,3.1 8,2.6 8.3,2.3 
		7.9,2.3 	"/>
	<polygon class="st0" points="10.4,2.1 10.4,2 10.4,1.9 10.3,2 10.3,2.1 10.2,2.3 9.8,2.3 10.1,2.6 10,3.1 10.4,2.8 10.7,3.1 
		10.6,2.6 10.9,2.3 10.5,2.3 	"/>
	<polygon class="st0" points="13,2.1 13,2 12.9,1.9 12.9,2 12.9,2.1 12.8,2.3 12.4,2.3 12.7,2.6 12.6,3.1 12.9,2.8 13.3,3.1 
		13.2,2.6 13.5,2.3 13.1,2.3 	"/>
	<polygon class="st0" points="2.6,4.3 2.5,4.8 2,4.8 2.4,5.1 2.3,5.3 2.3,5.5 2.2,5.6 2.2,5.6 2.3,5.6 2.3,5.5 2.6,5.3 2.6,5.3 
		2.6,5.3 2.9,5.5 2.9,5.6 2.9,5.6 2.9,5.6 2.9,5.5 2.9,5.3 2.8,5.1 3.2,4.8 2.7,4.8 	"/>
	<polygon class="st0" points="5.2,4.3 5,4.8 4.6,4.8 5,5.1 4.9,5.3 4.8,5.5 4.8,5.6 4.8,5.6 4.9,5.6 4.9,5.5 5.1,5.3 5.2,5.3 
		5.2,5.3 5.5,5.5 5.5,5.6 5.5,5.6 5.5,5.6 5.5,5.5 5.5,5.3 5.4,5.1 5.8,4.8 5.3,4.8 	"/>
	<polygon class="st0" points="7.8,4.3 7.6,4.8 7.2,4.8 7.5,5.1 7.5,5.3 7.4,5.5 7.4,5.6 7.4,5.6 7.4,5.6 7.5,5.5 7.7,5.3 7.8,5.3 
		7.8,5.3 8,5.5 8.1,5.6 8.1,5.6 8.1,5.6 8.1,5.5 8,5.3 8,5.1 8.3,4.8 7.9,4.8 	"/>
	<polygon class="st0" points="10.4,4.3 10.2,4.8 9.8,4.8 10.1,5.1 10.1,5.3 10,5.5 10,5.6 10,5.6 10,5.6 10.1,5.5 10.3,5.3 
		10.4,5.3 10.4,5.3 10.6,5.5 10.7,5.6 10.7,5.6 10.7,5.6 10.7,5.5 10.6,5.3 10.6,5.1 10.9,4.8 10.5,4.8 	"/>
	<polygon class="st0" points="12.9,4.3 12.8,4.8 12.4,4.8 12.7,5.1 12.7,5.3 12.6,5.5 12.6,5.6 12.6,5.6 12.6,5.6 12.7,5.5 
		12.9,5.3 12.9,5.3 13,5.3 13.2,5.5 13.3,5.6 13.3,5.6 13.3,5.6 13.3,5.5 13.2,5.3 13.2,5.1 13.5,4.8 13.1,4.8 	"/>
	<polygon class="st0" points="2.7,7.3 2.7,7.1 2.6,6.8 2.5,7.1 2.5,7.3 2.5,7.3 2,7.3 2,7.3 2.4,7.6 2.2,8 2.6,7.8 2.9,8 2.8,7.6 
		3.1,7.3 3.2,7.3 2.7,7.3 	"/>
	<polygon class="st0" points="5.3,7.3 5.3,7.1 5.2,6.8 5.1,7.1 5.1,7.3 5,7.3 4.6,7.3 4.6,7.3 5,7.6 4.8,8 5.2,7.8 5.5,8 5.4,7.6 
		5.7,7.3 5.8,7.3 5.3,7.3 	"/>
	<polygon class="st0" points="7.9,7.3 7.8,7.1 7.8,6.8 7.7,7.1 7.6,7.3 7.6,7.3 7.2,7.3 7.2,7.3 7.5,7.6 7.4,8 7.8,7.8 8.1,8 8,7.6 
		8.3,7.3 8.3,7.3 7.9,7.3 	"/>
	<polygon class="st0" points="10.5,7.3 10.4,7.1 10.4,6.8 10.3,7.1 10.2,7.3 10.2,7.3 9.8,7.3 9.8,7.3 10.1,7.6 10,8 10.4,7.8 
		10.7,8 10.6,7.6 10.9,7.3 10.9,7.3 10.5,7.3 	"/>
	<polygon class="st0" points="13.1,7.3 13,7.1 12.9,6.8 12.9,7.1 12.8,7.3 12.8,7.3 12.4,7.3 12.4,7.3 12.7,7.6 12.6,8 12.9,7.8 
		13.3,8 13.2,7.6 13.5,7.3 13.5,7.3 13.1,7.3 	"/>
	<polygon class="st0" points="2.7,9.8 2.6,9.3 2.5,9.8 2,9.8 2.4,10 2.2,10.5 2.6,10.2 2.9,10.5 2.8,10 3.2,9.8 	"/>
	<polygon class="st0" points="5.3,9.8 5.2,9.3 5,9.8 4.6,9.8 5,10 4.8,10.5 5.2,10.2 5.5,10.5 5.4,10 5.8,9.8 	"/>
	<polygon class="st0" points="7.9,9.8 7.8,9.3 7.6,9.8 7.2,9.8 7.5,10 7.4,10.5 7.8,10.2 8.1,10.5 8,10 8.3,9.8 	"/>
	<polygon class="st0" points="10.5,9.8 10.4,9.3 10.2,9.8 9.8,9.8 10.1,10 10,10.5 10.4,10.2 10.7,10.5 10.6,10 10.9,9.8 	"/>
	<polygon class="st0" points="13.1,9.8 12.9,9.3 12.8,9.8 12.4,9.8 12.7,10 12.6,10.5 12.9,10.2 13.3,10.5 13.2,10 13.5,9.8 	"/>
	<polygon class="st0" points="1.3,0.6 1.2,1.1 0.7,1.1 1.1,1.4 1,1.8 0.9,1.9 1.1,1.8 1.3,1.6 1.5,1.8 1.6,1.9 1.6,1.8 1.5,1.4 
		1.9,1.1 1.4,1.1 	"/>
	<polygon class="st0" points="3.9,0.6 3.7,1.1 3.3,1.1 3.7,1.4 3.6,1.8 3.5,1.9 3.6,1.8 3.9,1.6 4.1,1.8 4.2,1.9 4.2,1.8 4.1,1.4 
		4.5,1.1 4,1.1 	"/>
	<polygon class="st0" points="6.5,0.6 6.3,1.1 5.9,1.1 6.2,1.4 6.1,1.8 6.1,1.9 6.2,1.8 6.5,1.6 6.7,1.8 6.8,1.9 6.8,1.8 6.7,1.4 
		7,1.1 6.6,1.1 	"/>
	<polygon class="st0" points="9,0.6 8.9,1.1 8.5,1.1 8.8,1.4 8.7,1.8 8.7,1.9 8.8,1.8 9,1.6 9.3,1.8 9.4,1.9 9.4,1.8 9.3,1.4 
		9.6,1.1 9.2,1.1 	"/>
	<polygon class="st0" points="11.6,0.6 11.5,1.1 11.1,1.1 11.4,1.4 11.3,1.8 11.3,1.9 11.4,1.8 11.6,1.6 11.9,1.8 12,1.9 12,1.8 
		11.9,1.4 12.2,1.1 11.8,1.1 	"/>
	<polygon class="st0" points="14.2,0.6 14.1,1.1 13.6,1.1 14,1.4 13.9,1.8 13.9,1.9 14,1.8 14.2,1.6 14.5,1.8 14.6,1.9 14.5,1.8 
		14.4,1.4 14.8,1.1 14.4,1.1 	"/>
</g>
</svg>
