<?xml version="1.0" encoding="utf-8"?>
<!-- Generator: Adobe Illustrator 19.0.1, SVG Export Plug-In . SVG Version: 6.00 Build 0)  -->
<svg version="1.1" id="Layer_1" xmlns:sketch="http://www.bohemiancoding.com/sketch/ns"
	 xmlns="http://www.w3.org/2000/svg" xmlns:xlink="http://www.w3.org/1999/xlink" x="0px" y="0px"
	 viewBox="-343.2 310.2 104.6 13.8" style="enable-background:new -343.2 310.2 104.6 13.8;" xml:space="preserve">
<g>
	<g>
		<path d="M-308.1,322.5c2.9,0,5.7-1.7,5.7-5.3c0-3.5-2.9-5.4-5.5-5.4c-3.7,0-5.8,2.6-5.8,5.3C-313.7,320.3-311.3,322.5-308.1,322.5
			z M-308,313.3c1.8,0,3.1,1.1,3.1,4c0,2.8-1.4,3.8-3,3.8c-1.6,0-3.2-1-3.1-4.1C-311.1,314.3-309.8,313.3-308,313.3z"/>
		<path d="M-320.5,322.4h6.7l0.3-2.4c-0.5,0.8-1,0.9-2.5,1c-0.7,0-1.4,0-1.7-0.1v-8.2c0-0.3,0.1-0.6,0.4-0.7h-3.2
			c0.2,0.1,0.4,0.3,0.4,0.7v9C-320.1,322-320.2,322.3-320.5,322.4z"/>
		<path d="M-257.8,322.4h6.7l0.3-2.4c-0.5,0.8-1,0.9-2.5,1c-0.7,0-1.4,0-1.7-0.1v-8.2c0-0.3,0.1-0.6,0.4-0.7h-3.2
			c0.2,0.1,0.4,0.3,0.4,0.7v9C-257.4,322-257.6,322.3-257.8,322.4z"/>
		<path d="M-249.5,322.4h6.9l0.3-2.4c-0.6,0.9-1.2,0.9-2.2,0.9c-0.8,0.1-1.9,0-2.2,0v-3.3h2.1c0.2,0,0.5,0.2,0.5,0.4v-2.2
			c-0.1,0.2-0.3,0.4-0.5,0.4h-2.1v-2.9c0,0,2,0,2.6,0c0.5,0,0.8,0.2,1.1,0.6l-0.1-2h-6.4c0.2,0.1,0.4,0.3,0.4,0.7v9
			C-249.1,322.1-249.2,322.2-249.5,322.4z"/>
		<path d="M-283.6,313.1c1.5,0,2.3,0.9,2.6,1.8l-0.1-2.5c-0.9-0.4-1.9-0.5-2.4-0.5c-1.3,0-3.4,0.8-3.4,3.1c0,1.1,0.5,2,1.8,2.8
			c1.3,0.8,2.8,0.9,2.8,2.1c0,0.8-0.5,1.6-1.8,1.6c-1.6,0-2.5-1.2-2.7-2.3l0.1,2.9c0.5,0.2,1.6,0.6,3,0.6c2.1,0,3.7-1.4,3.7-3.3
			c0-2.2-1.5-2.7-2.9-3.3c-1.4-0.6-2.1-0.7-2.1-1.6C-285.1,313.7-284.6,313.1-283.6,313.1z"/>
		<path d="M-270.3,322.4h3.2c-0.2-0.1-0.4-0.3-0.4-0.7v-9c0-0.3,0.2-0.6,0.4-0.7h-3.2c0.2,0.1,0.4,0.3,0.4,0.7v9
			C-269.9,322-270,322.3-270.3,322.4z"/>
		<path d="M-261.3,321c-0.7,0-1.4,0-1.7-0.1v-8.2c0-0.3,0.1-0.6,0.4-0.7h-3.2c0.2,0.1,0.4,0.3,0.4,0.7v9c0,0.3-0.2,0.5-0.4,0.7h6.7
			l0.3-2.4C-259.3,320.8-259.7,320.9-261.3,321z"/>
		<path d="M-291.4,322.4h3.2c-0.2-0.1-0.4-0.3-0.4-0.7v-9c0-0.3,0.2-0.6,0.4-0.7h-3.2c0.2,0.1,0.4,0.3,0.4,0.7v9
			C-291,322-291.2,322.3-291.4,322.4z"/>
		<path d="M-276.7,312h-3.9c0.4,0.1,0.6,0.4,0.8,0.7c0.3,0.6,4.4,10.4,4.4,10.4s3.7-9.8,4-10.4c0.2-0.4,0.2-0.5,0.6-0.7h-2.6
			c0.4,0.1,0.5,0.3,0.4,0.8c-0.1,0.2-2,5.7-2,5.7s-2.1-5.4-2.1-5.7C-277.2,312.4-277.1,312.1-276.7,312z"/>
		<path d="M-298,312h-3.4c0.3,0.1,0.5,0.3,0.5,0.7v6.3c0,2.8,2.4,3.6,4.2,3.6c2.2,0,3.6-1.1,3.6-3.8l0-6.1c0-0.3,0.1-0.6,0.4-0.7
			h-2.5c0.2,0.1,0.5,0.3,0.5,0.7l0,6.1c0,1.6-0.8,2.3-1.9,2.3c-1.6,0-2.1-0.9-2.1-2v-6.3C-298.5,312.3-298.2,312.1-298,312z"/>
	</g>
	<g>
		<g>
			<path d="M-330.2,319.2c0.3-0.3,0.4-0.7,0.5-1.1c0-0.1,0-0.1,0-0.2h0.9l0.5-1.4c0,0-0.6,0.5-1.5,0.5c-0.1,0-0.2,0-0.3,0
				c-0.5-0.5-1.2-0.8-2-1c-1.2-0.4-1.4-0.5-1.4-0.8c0-0.4,0.5-0.7,1.3-0.6c0.7,0.1,1.1,0.3,1.3,0.5c0.3,0.3,0.3,0.6,0.3,0.6
				c0.2-0.3,0.8-1.1,0.8-1.1c-0.8-0.5-1.5-0.8-2.6-0.9c-1.2,0-2.4,0.5-2.5,1.7c-0.1,0.7,0.2,1.3,1.4,1.8c1.2,0.4,2.4,0.5,2.3,1.4
				c0,0.4-0.8,0.9-1.7,0.8c-0.5-0.1-0.9-0.3-1.1-0.5c-0.3-0.2-0.3-0.4-0.4-0.5l-0.8,0.8c0.3,0.2,1.1,0.9,2.5,1.1c0.3,0,0.6,0,1-0.1
				l-1.6,0.9l-9.5-5l9.5,6.6l9.5-6.6L-330.2,319.2z"/>
			<path d="M-338,313.5c0.2,0.1,0.2,0.3,0.2,0.5v3.3c0,0.2-0.1,0.4-0.3,0.5h5.5c-0.3-0.5-1.5-0.9-1.5-0.9c-0.9,0-1.9,0-2,0v-3.2
				c0-0.3,0.1-0.5,0.4-0.5c0.7-0.1,1.4-0.1,2.2-0.1c3.7,0,7.1,0.8,9.5,2c-2-1.8-5.5-2.9-9.5-2.9c-4,0-7.5,1.2-9.5,2.9
				c1.3-0.7,3-1.2,4.8-1.6C-338.1,313.5-338.1,313.5-338,313.5z"/>
		</g>
	</g>
	<g>
		<path d="M-238.9,312.6c0-1-0.7-1.5-1.6-1.5c-0.8,0-1.6,0.5-1.6,1.5s0.7,1.5,1.6,1.5C-239.7,314.1-238.9,313.5-238.9,312.6z
			 M-241.6,312.6c0-0.7,0.5-1.2,1.1-1.2c0.6,0,1.1,0.5,1.1,1.2s-0.5,1.2-1.1,1.2l0,0C-241.1,313.7-241.6,313.2-241.6,312.6z"/>
		<path d="M-239.8,313.4l-0.4-0.7c0.2,0,0.4-0.1,0.4-0.4c0-0.4-0.3-0.5-0.7-0.5h-0.6v1.6h0.3v-0.7h0.2l0.4,0.7H-239.8z
			 M-240.4,312.4h-0.3V312h0.3c0.1,0,0.3,0,0.3,0.2C-240.2,312.4-240.3,312.4-240.4,312.4z"/>
	</g>
</g>
</svg>
