<?xml version="1.0" encoding="utf-8"?>
<!-- Generator: Adobe Illustrator 19.0.1, SVG Export Plug-In . SVG Version: 6.00 Build 0)  -->
<svg version="1.0" id="Layer_1" xmlns:sketch="http://www.bohemiancoding.com/sketch/ns"
	 xmlns="http://www.w3.org/2000/svg" xmlns:xlink="http://www.w3.org/1999/xlink" x="0px" y="0px" viewBox="-305 333 128 128"
	 style="enable-background:new -305 333 128 128;" xml:space="preserve">
<style type="text/css">
	.st0{fill-rule:evenodd;clip-rule:evenodd;}
</style>
<g>
	<path fill="#CF102D" class="st0" d="M-183.3,441.2c0.6,0,1.1,0,1.1-0.7c0-0.6-0.5-0.6-0.9-0.6h-0.9v1.4H-183.3z M-184.1,443.6h-0.7v-4.4h1.7
		c1,0,1.5,0.4,1.5,1.2c0,0.8-0.5,1.1-1.1,1.2l1.2,1.9h-0.7l-1.2-1.9h-0.7V443.6z M-183.3,445.2c-2.1,0-3.9-1.6-3.9-3.8
		c0-2.2,1.8-3.8,3.9-3.8c2.1,0,3.8,1.6,3.8,3.8C-179.5,443.6-181.2,445.2-183.3,445.2z M-186.4,441.4c0,1.8,1.4,3.2,3.1,3.2
		c1.7,0,3.1-1.3,3.1-3.2c0-1.8-1.4-3.1-3.1-3.1C-185,438.3-186.4,439.6-186.4,441.4z"/>
	<path fill="#CF102D" class="st0" d="M-267.2,415.7c0,9.1,9.2,9.1,9.2,9.1c9.2,0,9.2-9.1,9.2-9.1V364h-11v-16.8h37.2V417c-0.2,7.7,6.1,7.9,6.1,7.9
		c7.2,0,10.5-7.9,10.5-7.9c5.4-11.1,4.8-21.7,4.8-21.7c0-17.6-4.8-31.3-4.8-31.3h-9.2v-16.8h30.6c6.6,16.3,7.1,44.1,7.1,44.1
		c0.3,37-17.6,48.9-17.6,48.9c-8.7,7.9-21.4,6.7-21.4,6.7c-13.5,0-20.6-11.5-20.6-11.5c-8.4,11.7-22.7,11.5-22.7,11.5
		c-33.6,0-33.6-31.9-33.6-31.9v-51h-11v-16.8h37.2V415.7"/>
</g>
</svg>
